<svg width="80" height="80" viewBox="0 0 80 80" fill="none" xmlns="http://www.w3.org/2000/svg">
<path fill-rule="evenodd" clip-rule="evenodd" d="M29.1721 58.828C28.4222 58.0779 28.001 57.0607 28.001 56C28.001 54.9394 28.4222 53.9222 29.1721 53.172L42.3441 40L29.1721 26.828C28.4435 26.0736 28.0403 25.0632 28.0494 24.0144C28.0585 22.9657 28.4792 21.9624 29.2208 21.2208C29.9625 20.4791 30.9657 20.0585 32.0145 20.0493C33.0633 20.0402 34.0737 20.4434 34.8281 21.172L50.8281 37.172C51.578 37.9222 51.9993 38.9394 51.9993 40C51.9993 41.0607 51.578 42.0779 50.8281 42.828L34.8281 58.828C34.078 59.5779 33.0608 59.9992 32.0001 59.9992C30.9395 59.9992 29.9222 59.5779 29.1721 58.828Z" fill="#E4E4F2"/>
</svg>
