<svg width="80" height="80" viewBox="0 0 80 80" fill="none" xmlns="http://www.w3.org/2000/svg">
<path fill-rule="evenodd" clip-rule="evenodd" d="M50.8289 58.7788C51.5787 58.0287 52 57.0115 52 55.9508C52 54.8902 51.5787 53.873 50.8289 53.1228L37.6569 39.9508L50.8289 26.7788C51.5575 26.0244 51.9607 25.014 51.9516 23.9652C51.9424 22.9165 51.5218 21.9132 50.7801 21.1716C50.0385 20.4299 49.0352 20.0093 47.9865 20.0002C46.9377 19.991 45.9273 20.3942 45.1729 21.1228L29.1729 37.1228C28.423 37.873 28.0017 38.8902 28.0017 39.9508C28.0017 41.0115 28.423 42.0287 29.1729 42.7788L45.1729 58.7788C45.923 59.5287 46.9402 59.95 48.0009 59.95C49.0615 59.95 50.0787 59.5287 50.8289 58.7788Z" fill="#E4E4F2"/>
</svg>
