<svg width="573" height="587" viewBox="0 0 573 587" fill="none" xmlns="http://www.w3.org/2000/svg">
<g opacity="0.65">
<path d="M361.219 28.7752C361.219 30.6077 361.687 32.7003 361.827 34.0953C363.146 58.8221 360.047 85.334 356.352 108.571C352.658 131.808 351.546 153.112 342.382 174.192C345.652 158.669 349.528 143.341 351.497 127.493C351.679 126.015 352.159 124.053 352.105 122.173C352.244 120.742 352.712 118.679 352.712 116.853C352.712 111.994 353.15 106.916 352.712 102.075C352.645 101.312 353.107 100.012 352.105 99.7101C351.005 105.787 351.679 112.319 351.497 118.626C351.497 121.54 351.309 124.118 350.889 126.902C349.966 132.334 348.842 138.884 347.201 144.003C345.56 149.122 344.205 155.152 342.249 159.875C340.286 164.592 340.335 171.614 335.698 172.418C338.475 152.834 344.078 134.474 342.99 113.897C341.902 93.3201 346.952 70.6505 344.813 50.0557C344.71 49.0803 344.892 48.0754 344.813 47.1001C343.039 46.7927 343.762 49.0685 343.598 50.0557C343.379 58.3787 344.436 67.3638 341.775 74.8829C341.55 63.4624 331.682 48.5069 335.516 37.4648C339.344 26.4226 351.448 22.332 356.358 12.2238C362.04 16.2611 361.219 22.6098 361.219 28.7752Z" fill="#FEE877" fill-opacity="0.65"/>
<path d="M271.448 92.6318C271.365 91.6443 271.508 90.6448 271.448 89.6572C269.254 90.6924 270.655 93.6967 270.255 95.6064C270.172 99.7946 269.063 103.263 269.063 107.505C268.902 109.141 268.466 111.419 268.466 113.454C268.878 125.108 267.459 136.305 267.87 147.959C265.455 148.501 263.207 149.577 260.714 149.744C254.793 132.301 256.957 108.82 257.744 90.859C258.538 72.9044 269.802 61.7675 278.055 47.4657C286.303 33.1579 286.905 16.6311 298.879 4.58398C304.21 15.8458 307.454 27.6787 308.552 40.1482C309.649 52.6177 301.837 60.6015 298.152 72.2737C294.46 83.9401 289.672 93.1137 286.225 104.994C282.778 116.875 279.427 130.617 280.393 143.795C277.871 144.622 275.336 145.449 272.641 145.58C269.307 128.214 272.909 110.176 271.448 92.6318ZM277.411 59.3164C276.129 64.1591 272.784 69.6085 273.237 74.1894C274.77 69.4241 278.085 63.9687 277.411 59.3164Z" fill="#FEE877" fill-opacity="0.65"/>
<path d="M331.324 93.6247C331.213 91.5296 330.741 89.8084 330.741 87.6895C329.815 89.6303 329.745 93.506 330.741 95.4053C330.415 99.2988 330.741 103.37 330.741 107.276C330.741 109.116 331.19 111.217 331.324 112.617C330.654 127.722 333.282 143.718 328.41 157.725C324.272 156.33 323.69 152.437 323.165 148.822C322.239 154.656 319.272 154.846 318.113 149.813C316.947 144.78 317.273 141.735 316.749 136.958C316.23 132.174 315.42 128.619 314.995 123.906C314.569 119.2 314.843 115.555 315.007 110.837C315.17 106.118 315.589 101.845 315.589 97.1859C315.857 94.3844 315.852 91.0429 315.589 88.283C313.509 62.5124 315.298 35.5725 331.324 15.28C333.189 20.6276 332.792 27.1979 333.696 33.0441C334.605 38.8843 335.7 44.1014 336.959 49.9001C338.218 55.6928 339.034 61.3788 339.483 67.5098C339.931 73.6409 339.051 81.0184 340.071 87.0901C341.085 93.1677 340.654 100.432 340.648 106.682C340.642 112.932 339.622 119.294 339.092 125.277C338.562 131.26 338.055 137.516 336.761 143.083C335.467 148.65 336.341 155.155 333.072 158.912C335.444 137.308 332.484 115.359 331.324 93.6247ZM329.576 57.42C330.887 54.7966 329.803 50.9981 330.158 47.9237C327.408 49.5202 330.671 54.3574 329.576 57.42Z" fill="#FEE877" fill-opacity="0.65"/>
<path d="M362.136 35.144C361.785 33.5413 360.608 31.1372 360.608 29.032C360.96 30.6347 362.136 33.0387 362.136 35.144Z" fill="#868686"/>
<path d="M246.456 155.856C248.058 143.311 246.99 127.753 243.047 116.352C239.109 104.945 235.88 95.7657 230.718 85.1034C225.55 74.447 222.753 63.469 220.238 52.0204C217.723 40.5718 214.176 25.2395 220.646 15.28C221.912 27.5089 224.565 40.7267 229.457 51.806C234.343 62.8912 238.659 71.2781 244.805 81.8451C250.946 92.4181 251.582 107.822 251.858 120.116C252.134 132.411 258.148 148.047 246.456 155.856Z" fill="#FEE877" fill-opacity="0.65"/>
<path d="M370.82 84.7905C373.107 77.3243 374.913 69.6751 377.767 62.3799C373.726 68.9851 372.331 77.3537 369.662 84.7905C367.48 91.213 363.781 97.0692 362.137 103.663C362.09 91.5078 364.915 74.7352 365.622 62.3917C366.328 50.054 375.185 40.0754 386.45 38.2C387.255 50.8797 384.245 65.9892 382.357 78.262C380.47 90.5288 370.82 95.76 364.452 105.432C364.574 98.8385 368.753 91.5314 370.82 84.7905Z" fill="#FEE877" fill-opacity="0.65"/>
<path d="M366.72 50.3408C363.907 51.3828 365.81 42.3141 365.955 41.256C365.955 44.2005 365.344 47.8024 366.72 50.3408Z" fill="#6E6E6E"/>
<path d="M396.672 165.002C395.146 167.587 392.985 170.077 391.285 172.674C384.192 181.626 377.482 191.853 367.941 198.64C362.195 190.868 368.258 182.706 371.951 175.447C375.645 168.189 380.403 162.063 384.102 154.969C374.849 164.441 368.336 176.055 361.955 187.427C358.077 182.293 363.673 175.046 364.96 169.145C366.253 163.249 370.21 157.554 372.777 152.066C375.345 146.572 378.775 141.39 381.756 136.132C384.731 130.874 388.137 125.923 391.423 120.877C394.709 115.831 398.288 111.228 401.91 106.43C405.525 101.627 408.931 96.994 412.654 92.2375C416.377 87.475 419.316 82.4529 422.86 77.5135C426.397 72.574 429.587 68.0122 433.334 63.055C437.076 58.0919 440.583 55.3596 445.108 50.4673C449.633 45.575 459.091 42.9371 456.397 50.9748C453.698 59.0066 451.531 61.4852 448.706 68.1774C445.874 74.8637 443.983 79.4609 441.152 85.5158C438.315 91.5647 435.819 96.5632 433.047 102.311C430.276 108.065 427.307 113.099 424.386 118.564C421.471 124.022 418.173 128.791 414.779 133.872C411.391 138.959 407.949 143.562 404.639 148.661C401.323 153.754 399.743 159.797 396.672 165.002ZM407.446 116.61C414.641 105.657 421.674 94.0197 427.798 82.3821C420.405 93.2289 413.564 104.967 407.446 116.61Z" fill="#FEE877" fill-opacity="0.65"/>
<path d="M346.831 38.1998C346.771 38.0848 345.403 38.0848 345.343 38.1998C345.544 37.1888 344.659 34.858 346.831 35.1728C346.928 36.1717 346.704 37.2009 346.831 38.1998Z" fill="#5C5C5C"/>
<path d="M252.672 84.0399C245.178 77.0985 251.109 66.7577 254.763 59.4471C258.422 52.1425 259.583 41.7898 267.4 38.2C265.219 53.1128 257.64 66.3469 254.938 81.0633C252.44 74.7053 257.974 67.4899 256.637 61.4176C255.204 68.9366 252.944 76.2233 252.672 84.0399Z" fill="#FEE877" fill-opacity="0.65"/>
<path d="M371.086 83.9988C370.968 84.1433 369.953 83.8483 369.776 83.9988C372.795 76.4066 374.373 67.8631 378.944 61.1199C375.715 68.5676 373.672 76.3765 371.086 83.9988Z" fill="#3E3E3E"/>
<path d="M310.068 65.7037C311.632 79.5789 312.19 95.362 311.886 109.827C311.583 124.293 315.821 138.478 310.674 152.162C303.206 154.47 299.381 150.242 300.369 143.815C301.357 137.387 300.193 131.836 301.018 125.968C301.848 120.101 303.042 115.897 304.049 110.465C305.061 105.033 307.286 101.402 308.249 96.1133C300.521 113.065 298.641 132.921 295.52 151.566C286.227 154.691 285.402 147.309 285.821 140.833C286.239 134.358 286.009 128.664 287.773 123.076C289.543 117.489 290.61 113.202 292.501 108.051C294.398 102.905 296.362 98.5819 298.563 93.7402C300.769 88.9045 301.672 83.9495 303.818 79.233C305.97 74.5225 307.952 70.3844 310.068 65.7037Z" fill="#FEE877" fill-opacity="0.65"/>
<path d="M278.001 68.7599C278.719 73.0615 275.189 78.1057 273.557 82.5119C273.074 78.2763 276.636 73.2375 278.001 68.7599Z" fill="#262626"/>
<path d="M407.976 116.128C413.947 104.693 420.625 93.1646 427.84 82.5118C421.863 93.9413 414.998 105.371 407.976 116.128Z" fill="#3E3E3E"/>
<path d="M356.221 164.156C359.21 161.56 359.94 156.145 362.249 153.045C359.018 155.987 357.848 160.478 355.618 164.156C353.219 168.32 352.321 174.314 348.384 177.022C350.946 169.39 355.105 161.437 358.68 154.262C362.249 147.08 366.631 140.332 370.223 133.297C373.816 126.262 380.573 120.045 380.935 112.695C371.652 130.449 358.632 146.519 350.193 164.741C350.952 156.115 355.672 144.864 356.353 135.63C357.034 126.396 359.699 116.034 366.016 109.332C372.327 102.63 376.535 95.3848 385.106 91.5954C393.684 87.8118 405.282 87.6071 414.088 84.0399C390.097 113.56 370.079 145.934 352.001 178.776C351.905 173.735 356.492 169.162 356.221 164.156Z" fill="#FEE877" fill-opacity="0.65"/>
<path d="M170.372 103.112C173.31 106.057 176.106 109.317 179.257 112.019C196.529 128.858 216.01 145.514 223.088 168.428C221.039 168.541 219.961 171.159 217.758 170.803C210.614 151.012 194.136 136.399 180.442 120.332C177.397 116.763 173.903 113.26 170.372 110.237C163.383 104.175 156.056 98.7299 148.457 93.6115C150.903 97.4058 155.985 99.6384 159.563 102.667C163.14 105.695 166.564 108.462 169.928 111.87C173.292 115.285 176.438 118.734 179.701 122.261C182.965 125.795 185.376 129.256 188.586 132.95C191.796 136.643 194.112 140.538 197.175 144.528C200.231 148.524 202.351 151.41 205.366 155.911C208.381 160.412 209.43 163.803 212.237 169.212C215.045 174.621 210.17 179.229 207.641 173.226C205.106 167.223 202.89 165.631 199.348 161.35C195.8 157.069 193.573 154.836 190.067 151.06C186.56 147.283 183.948 144.035 180.59 140.372C177.225 136.708 173.547 133.977 169.188 132.207C185.405 144.273 199.396 161.511 206.504 180.304C196.079 174.307 193.615 159.878 183.551 152.248C173.482 144.617 169.04 132.783 158.082 126.715C147.124 120.652 138.766 110.606 135.023 98.7655C131.286 86.9255 123.905 76.2137 117.656 65.7037C138.328 72.2116 153.746 88.8672 170.372 103.112Z" fill="#FEE877" fill-opacity="0.65"/>
<path d="M440.362 113.918C443.821 111.776 446.315 106.977 448.101 103.63C445.077 107.055 442.225 110.971 439.171 114.523C434.099 120.551 428.223 125.973 423.098 132.073C421.365 133.834 418.537 135.547 417.144 137.52C423.092 127.401 430.498 117.071 435.052 106.099C439.6 95.1273 449.911 82.0132 462.984 89.1058C458.508 98.0927 454.078 107.449 446.166 114.372C438.255 121.295 434.718 131.299 424.288 134.494C429.021 127.311 434.843 120.611 440.362 113.918Z" fill="#FEE877" fill-opacity="0.65"/>
<path d="M194.574 123.057C192.401 120.543 189.81 118.35 187.49 116.058C177.171 103.105 158.789 93.8321 157.384 76.4C174.438 76.9132 191.421 81.5731 203.576 93.7504C215.73 105.928 224.467 119.481 222.908 136.47C213.936 117.907 197.779 100.539 178.635 92.1466C188.741 98.9001 200.081 105.012 207.106 115.924C214.13 126.836 223.888 138.721 222.318 152.8C215.276 143.597 211.675 131.752 202.838 123.64C208.871 131.595 213.676 140.716 217.596 149.884C211.439 140.069 202.395 132.102 194.574 123.057Z" fill="#FEE877" fill-opacity="0.65"/>
<path d="M244.421 137.687C244.421 141.223 244.421 144.759 244.421 148.295C244.25 151.536 245.614 157.6 240.894 157.723C241.664 147.104 238.784 137.393 236.192 127.669C235.422 124.782 234.558 121.906 234.429 118.83C233.107 121.552 234.858 125.601 235.605 128.258C236.68 132.908 236.58 136.373 237.368 141.223C238.155 146.073 235.987 149.691 236.78 154.777C237.573 159.863 234.735 162.892 232.531 157.859C230.327 152.826 229.322 153.097 227.964 148.295C227.053 142.301 227.923 135.112 227.376 129.437C225.272 112.129 220.382 93.8492 225.025 76.4C232.031 96.4126 244.421 115.618 244.421 137.687Z" fill="#FEE877" fill-opacity="0.65"/>
<path d="M331.576 92.9727C331.474 93.4076 330.968 93.9718 330.893 94.7358C329.726 92.8552 329.808 89.0176 330.893 87.0958C330.893 89.1939 331.446 90.8982 331.576 92.9727Z" fill="#818181"/>
<path d="M314.768 96.2638C314.768 93.2078 314.768 90.1518 314.768 87.0958C316.783 89.9379 316.828 93.379 314.768 96.2638Z" fill="#777777"/>
<path d="M439.758 114.006C439.397 114.22 438.872 114.297 438.536 114.6C441.671 111.112 444.599 107.267 447.704 103.904C445.87 107.19 443.309 111.902 439.758 114.006Z" fill="#606060"/>
<path d="M273.494 100.848C273.437 101.41 272.198 103.299 272.077 103.904C272.552 101.942 270.888 98.8555 273.494 97.792C273.565 98.8066 273.395 99.8334 273.494 100.848Z" fill="#A0A0A0"/>
<path d="M142.083 131.196C140.743 129.243 138.052 128.341 136.129 127.042C136.987 129.297 140.225 130.145 142.083 131.789C148.102 137.166 154.787 142.406 161.134 147.812C165.45 152.114 169.945 156.594 174.231 160.867C179.071 166 184.953 172.154 188.965 177.631C192.978 183.109 201.217 192.04 192.686 196.473C190.198 191.488 185.763 187.197 181.375 183.417C182.982 190.153 189.513 190.52 190.436 198.122C191.365 205.724 183.643 199.843 180.631 195.434C177.618 191.019 172.921 186.841 169.421 182.871C165.92 178.901 162.705 173.632 158.901 170.214C155.091 166.801 151.84 160.636 147.441 158.493C138.624 149.705 130.152 140.257 120.651 132.383C128.247 141.622 138.285 149.734 146.846 158.493C160.639 173.691 171.064 191.209 184.352 206.561C181.542 210.359 177.904 203.475 174.677 201.368C171.451 199.268 167.825 194.882 164.11 193.505C167.611 197.719 170.695 201.95 175.273 205.522C179.857 209.089 182.863 214.614 175.422 217.242C155.121 198.211 135.004 177.228 122.437 153.746C134.314 179.186 153.948 200.259 173.636 220.803C173.546 222.868 171.594 224.227 171.254 226.144C161.092 225.123 154.186 216.4 146.697 209.676C139.207 202.953 134.338 195.861 127.747 188.212C121.157 180.563 116.602 171.092 114.656 160.909C112.703 150.725 104.868 143.367 102.183 132.988C99.4926 122.615 92.5033 113.506 93.2654 101.525C94.0274 89.5433 110.018 101.08 116.632 106.124C123.252 111.162 134.07 116.823 141.44 121.749C148.816 126.668 159.252 131.065 165.152 138.465C171.052 145.871 177.601 152.88 184.203 159.829C190.805 166.778 198.163 175.637 198.64 184.604C182.524 164.635 162.509 146.334 142.083 131.196Z" fill="#FEE877" fill-opacity="0.65"/>
<path d="M352.962 121.323C353.031 123.267 352.429 125.296 352.201 126.824C352.148 126.61 351.47 126.347 351.44 126.213C351.965 123.334 352.201 120.669 352.201 117.656C352.323 118.53 352.917 120.027 352.962 121.323Z" fill="#505050"/>
<path d="M178.776 113.072C176.067 110.291 173.663 106.935 171.136 103.904C173.846 106.685 176.245 110.034 178.776 113.072Z" fill="#757575"/>
<path d="M425.923 178.307C430.16 173.3 435.563 169.178 439.078 163.699C442.593 158.22 446.001 152.824 451.22 148.672C456.44 144.52 459.552 138.894 466.032 136.305C472.506 133.716 480.862 131.245 488.253 130.732C495.644 130.219 503.964 125.896 511.722 127.005C519.486 128.108 511.089 138.865 508.361 143.695C505.627 148.519 502.177 155.838 499.254 161.747C496.33 167.651 491.993 171.968 486.43 176.686C480.862 181.398 473.056 180.383 465.375 180.472C457.694 180.56 450.682 183.727 443.717 186.015C436.758 188.304 429.598 192.108 422.372 190.692C431.675 188.575 441.243 183.25 448.41 177.718C437.255 182.276 426.118 190.456 414.088 190.102C436.355 175.317 456.771 156.982 480.365 144.691C460.807 153.237 444.066 167.332 425.923 178.307Z" fill="#FEE877" fill-opacity="0.65"/>
<path d="M268.928 120.712C268.928 119.144 270.043 117.388 270.456 116.128C270.456 117.696 269.341 119.451 268.928 120.712Z" fill="#797979"/>
<path d="M448.92 144.804C446.63 146.764 444.329 148.912 442.478 151.26C436.856 159.9 429.722 168.128 422.155 175.5C414.594 182.872 406.769 194.094 395.624 192.345C403.601 186.998 412.287 181.123 417.88 172.976C410.207 180.583 402.049 187.444 392.696 192.345C398.951 178.124 410.43 166.855 421.394 155.368C412.574 161.971 405.346 171.539 396.795 178.846C399.507 173.628 401.551 166.955 403.648 161.649C405.739 156.337 410.371 152.809 414.219 148.765C418.067 144.727 422.366 140.994 426.618 137.713C430.876 134.438 438.601 133.077 442.66 130.312C446.712 127.548 460.429 127.272 459.914 132.343C459.404 137.414 452.376 141.845 448.92 144.804Z" fill="#FEE877" fill-opacity="0.65"/>
<path d="M180.304 120.712C177.317 117.226 174.151 113.533 171.136 110.016C174.35 113.218 177.532 116.931 180.304 120.712Z" fill="#757575"/>
<path d="M417.295 137.283C418.69 135.709 421.521 134.342 423.256 132.936C422.028 134.1 416.132 138.592 417.295 137.283Z" fill="#6F6F6F"/>
<path d="M194.056 123.768C191.554 121.266 188.759 118.872 186.416 116.128C188.918 118.63 191.713 121.024 194.056 123.768Z" fill="#6A6A6A"/>
<path d="M235.312 127.779C235.304 127.893 234.928 128.151 234.912 128.352C234.403 125.768 233.21 121.831 234.111 119.184C234.199 122.175 234.788 124.971 235.312 127.779Z" fill="#666666"/>
<path d="M443.12 151.272C444.876 148.494 447.059 145.952 449.232 143.632C447.298 146.049 444.992 148.737 443.12 151.272Z" fill="#727272"/>
<path d="M142.104 130.835C142.104 130.835 141.952 131.282 142.104 131.408C140.198 129.82 136.873 129.001 135.992 126.824C137.967 128.078 140.729 128.949 142.104 130.835Z" fill="#3E3E3E"/>
<path d="M146.688 158.86C146.688 158.86 146.342 158.977 146.111 158.86C137.81 150.163 128.078 142.109 120.712 132.936C129.925 140.754 138.139 150.134 146.688 158.86Z" fill="#393939"/>
<path d="M356.719 163.496C356.719 163.496 356.114 163.372 356.024 163.496C358.594 159.955 359.941 155.632 363.664 152.8C361.004 155.784 360.164 160.996 356.719 163.496Z" fill="#525252"/>
<path d="M397.195 166.787C396.365 168.45 393.559 171.629 391.838 172.664C391.838 172.664 391.315 172.517 391.168 172.664C393.07 170.078 395.488 167.598 397.195 165.024C397.108 165.893 397.423 166.011 397.195 166.787Z" fill="#5B5B5B"/>
<path d="M392.338 172.481C393.926 171.438 396.514 168.23 397.28 166.552C390.843 181.15 384.141 198.482 368.248 206.28C368.742 199.479 377.334 194.895 380.034 189.131C382.733 183.368 391.486 178.684 392.338 172.481Z" fill="#FEE877" fill-opacity="0.65"/>
<path d="M174.192 160.44C169.691 156.439 164.972 152.244 160.44 148.216C165.241 151.861 170.06 156.145 174.192 160.44Z" fill="#747474"/>
<path d="M505.474 182.986C506.376 182.986 513.643 182.576 512.004 181.797C505.421 181.773 498.564 181.553 492.414 180.607C500.564 175.408 509.713 176.699 519.128 175.848C520.701 176.913 524.768 177.311 526.252 177.038C524.186 175.372 521.431 176.181 519.128 175.253C517.958 175.158 516.741 175.253 515.566 175.253C512.372 174.944 508.644 174.866 505.474 175.253C501.307 175.045 497.537 176.419 493.601 177.038C497.406 170.334 503.598 166.788 511.013 168.513C518.427 170.238 525.195 170.339 531.779 173.879C538.356 177.424 542.274 178.989 548.674 183.123C555.073 187.258 559.9 186.651 566.472 192.058C573.049 197.46 561.42 200.97 554.153 199.643C546.887 198.316 536.688 199.197 529.22 199.643C521.752 200.089 514.931 203.188 507.86 205.009C500.796 206.835 495.115 210.333 487.664 210.946C480.214 211.558 471.493 211.255 464.512 213.92C471.832 209.274 480.089 205.621 488.258 202.617C483.764 201.523 478.617 205.092 474.01 206.187C479.502 200.946 489.843 195.181 486.477 185.961C492.503 183.415 498.724 182.986 505.474 182.986Z" fill="#FEE877" fill-opacity="0.65"/>
<path d="M228.716 165.024C228.045 161.228 227.022 156.473 228.237 152.8C228.529 156.693 233.371 163.221 228.716 165.024Z" fill="#E0E0E0"/>
<path d="M283.203 162.251C288.06 160.514 291.087 167.247 286.591 169.265C282.096 171.283 278.86 163.805 283.203 162.251Z" fill="#EEEFEE"/>
<path d="M514.936 175.72C511.883 175.72 508.82 175.338 505.768 175.72C508.647 173.463 512.034 173.914 514.936 175.72Z" fill="#757575"/>
<path d="M521.048 163.983C521.048 163.983 521.112 163.506 521.048 163.496C523.518 164.255 526.472 163.593 528.688 164.956C527.096 165.179 522.735 164.853 521.048 163.983Z" fill="#323232"/>
<path d="M333.366 165.554C341.43 162.378 345.847 174.346 338.619 178.12C331.39 181.893 326.452 168.278 333.366 165.554Z" fill="#F6F6F6"/>
<path d="M317.196 171.447C317.982 169.79 318.559 167.452 320.88 168.236C320.008 172.43 318.319 176.251 314.549 172.931C310.785 169.604 307.23 171.434 304.301 174.016C302.336 166.117 313.561 168.018 317.196 171.447Z" fill="#E0E1E1"/>
<path d="M505.768 183.36C507.258 183.154 510.168 182.52 511.663 181.832C513.143 182.833 506.583 183.36 505.768 183.36Z" fill="#959595"/>
<path d="M251.171 161.986C252.155 161.648 252.55 166.155 251.492 166.53C250.433 166.905 250.287 162.288 251.171 161.986Z" fill="#D4D6D5"/>
<path d="M413.643 208.068C409.451 209.379 405.195 210.578 400.601 210.409C404.834 211.977 410.287 209.999 414.235 208.653C421.758 206.722 427.875 203.398 435.167 200.642C442.452 197.886 447.313 194.96 455.001 192.133C462.696 189.307 468.701 186.439 478.256 187.001C487.812 187.563 480.396 197.166 474.552 200.899C468.713 204.633 464 208.571 458.546 213.188C453.093 217.811 448.783 221.598 442.233 225.173C435.676 228.749 427.466 230.551 419.612 230.931C411.757 231.312 402.984 233.77 395.278 234.998C387.578 236.233 380.28 237.936 373.333 241.424C373.736 232.008 386.374 232.511 394.276 230.498C402.172 228.485 413.103 227.613 421.349 226.209C427.852 225.103 434.011 222.797 440.318 220.942C434.485 221.012 427.413 224.576 421.349 225.624C413.672 227.21 406.073 226.841 398.236 227.97C390.393 229.094 383.63 228.953 375.751 230.937C367.873 232.915 372.159 219.982 369.776 214.505C374.026 216.863 377.5 211.954 381.585 210.362C385.675 208.776 390.393 206.307 394.673 205.727C388.093 204.738 381.869 209.531 375.704 211.579C383.6 205.54 387.678 197.049 398.23 196.364C408.782 195.679 422.837 195.363 433.199 194.018C443.561 192.677 451.824 186.422 461.658 186.416C445.339 192.806 430.472 202.819 413.643 208.068Z" fill="#FEE877" fill-opacity="0.65"/>
<path d="M276.568 178.776C276.581 176.224 282.877 171.903 284.208 175.671C280.891 175.272 279.675 178.714 276.568 178.776Z" fill="#D7D8D7"/>
<path d="M265.276 168.425C271.347 166.31 274.73 174.509 269.147 176.86C263.564 179.212 260.279 170.168 265.276 168.425Z" fill="#EDEDED"/>
<path d="M303.585 181.93C312.714 180.468 315.051 195.747 305.923 197.034C296.795 198.32 294.849 183.326 303.585 181.93Z" fill="#F4F5F4"/>
<path d="M285.218 182.041C287.451 180.957 290.323 184.357 287.823 186.042C285.324 187.726 282.727 183.25 285.218 182.041Z" fill="#E5E5E5"/>
<path d="M234.404 174.395C238.87 173.02 242.375 178.982 237.632 181.387C232.897 183.791 230.062 175.739 234.404 174.395Z" fill="#EFF1F0"/>
<path d="M321.967 182.213C328.37 179.936 331.112 188.518 325.431 190.665C319.744 192.812 316.941 183.998 321.967 182.213Z" fill="#ECEDED"/>
<path d="M249.6 175.72C247.451 178.222 252.664 177.233 249.6 175.72Z" fill="#D8DAD9"/>
<path d="M346.517 206.28C346.479 199.018 334.896 188.258 344.649 183.36C344.126 188.209 343.131 194.344 348.384 197.233C346.591 199.911 347.78 203.656 346.517 206.28Z" fill="#E4E4E4"/>
<path d="M350.614 198.95C356.126 197.037 358.129 204.541 353.278 206.069C348.428 207.597 346.532 200.367 350.614 198.95Z" fill="#ECEDEC"/>
<path d="M247.675 187.026C248.614 183.112 253.772 180.026 256.704 183.053C251.846 180.933 250.865 189.384 247.681 190.331C244.496 191.278 239.783 185.755 236.84 191C236.9 184.092 243.78 186.013 247.675 187.026Z" fill="#D9DBDA"/>
<path d="M224.357 182.209C227.734 180.261 231.111 186.364 227.921 188.937C224.731 191.509 221.119 184.075 224.357 182.209Z" fill="#EDEEEE"/>
<path d="M275.507 194.148C279.366 193.263 281.421 199.015 277.557 200.051C273.698 201.081 271.807 194.996 275.507 194.148Z" fill="#EBEBEB"/>
<path d="M333.384 195.681C337.237 194.918 339.513 198.872 335.805 199.997C332.097 201.117 329.769 196.399 333.384 195.681Z" fill="#E4E4E4"/>
<path d="M414.088 208.727C410.106 210.841 404.605 213.948 400.336 211.484C404.97 211.751 409.263 209.867 413.49 207.808C413.592 207.808 413.885 208.718 414.088 208.727Z" fill="#5A5A5A"/>
<path d="M251.925 191.107C255.277 190.265 256.389 194.637 253.573 195.48C250.748 196.329 249.401 191.744 251.925 191.107Z" fill="#DFE1E0"/>
<path d="M213.277 194.236C215.237 192.958 216.374 198.849 214.472 200.013C212.565 201.185 211.552 195.363 213.277 194.236Z" fill="#D9DBDA"/>
<path d="M235.159 197.174C239.525 196.313 239.348 204.612 235.165 204.75C230.981 204.888 231.607 197.877 235.159 197.174Z" fill="#E9E9E9"/>
<path d="M303.144 206.453C304.851 205.603 306.621 208.105 304.891 209.123C303.167 210.147 301.67 207.186 303.144 206.453Z" fill="#DADCDB"/>
<path d="M507.339 242.93C506.009 241.559 503.181 242.734 501.374 242.337C502.955 243.328 505.436 242.918 507.339 243.523C513.347 244.265 520.094 245.197 525.833 246.49C531.565 247.784 537.03 248.793 542.405 250.775C547.774 252.762 552.123 253.653 556.704 257.32C561.292 260.987 562.694 263.912 567.132 268.309C571.571 272.706 570.884 279.252 564.143 275.436C557.408 271.62 554.288 272.73 547.309 271.413C545.668 271.104 543.192 270.695 541.343 270.226C540.019 269.199 536.636 268.659 535.377 269.039C537 270.084 539.392 270.179 541.343 270.819C543.115 271.211 544.91 271.68 546.712 272.006C554.264 273.395 561.411 276.053 568.188 279.72C558.643 284.414 544.314 280.664 533.987 284.272C523.667 287.879 513.227 289.927 502.573 291.594C491.918 293.256 480.077 297.107 469.166 296.329C458.255 295.558 446.127 295.831 437.357 289.399C428.594 282.96 419.419 282.201 409.504 279.127C415.082 273.644 423.123 271.413 430.98 271.413C440.853 271.413 451.412 271.721 460.808 270.819C470.472 270.819 479.611 269.407 488.846 267.852C497.454 266.405 506.957 264.541 515.094 266.666C506.617 263.485 496.464 265.004 488.249 267.259C469.541 270.232 448.966 269.283 430.383 267.259C437.787 265.42 445.184 268.298 452.408 265.431C459.639 262.571 454.46 255.367 452.038 250.466C449.622 245.559 444.08 242.396 439.928 239.37C442.511 239.37 445.1 239.37 447.684 239.37C451.275 239.714 455.612 239.963 459.615 239.963C467.895 238.349 475.793 242.663 482.88 242.93C465.073 235.174 443.329 240.823 425.611 233.436C439.773 233.4 450.112 221.485 463.194 218.601C465.121 218.405 467.221 218.559 469.16 218.601C484.855 218.844 498.331 230.107 513.174 232.973C528.01 235.839 544.051 237.661 552.678 251.831C538.169 246.294 522.957 244.431 507.339 242.93Z" fill="#FEE877" fill-opacity="0.65"/>
<path d="M261.385 203.224C260.322 196.348 268.546 203.224 261.385 203.224Z" fill="#E5E7E6"/>
<path d="M420.263 226.144C420.263 226.144 420.121 225.706 420.263 225.635C426.593 224.723 433.975 221.621 440.064 221.56C433.48 223.175 427.051 225.181 420.263 226.144Z" fill="#575757"/>
<path d="M331.576 211.253C328.931 209.477 330.252 214.542 331.576 211.253Z" fill="#D6D8D7"/>
<path d="M202.38 203.499C204.582 202.118 205.641 206.319 203.834 207.582C202.028 208.846 200.898 204.426 202.38 203.499Z" fill="#E4E6E5"/>
<path d="M351.44 224.616C353.109 225.409 354.594 227.569 356.024 228.981C354.287 230.064 352.458 226.893 351.44 224.616Z" fill="#C6C8C7"/>
<path d="M77.0353 215.846C74.4192 215.846 71.8681 215.927 69.3583 216.422C68.3485 216.624 66.9076 216.474 66.4057 217.575C67.5159 217.304 69.317 218.186 69.9489 216.999C72.2047 217.316 74.7558 216.999 77.0353 216.999C80.5784 216.999 84.1216 216.999 87.6648 216.999C113.896 217.079 139.649 221.149 162.072 233.716C145.85 234.517 129.805 227.952 113.058 227.952C106.19 227.3 98.0345 227.306 91.208 227.952C82.2851 227.709 70.3032 228.274 61.6873 227.946C53.0656 227.617 49.8826 221.126 42.7844 218.152C55.7466 208.502 72.6004 207.199 88.8459 207.199C91.2552 207.199 93.9599 206.807 95.9323 206.622C108.812 207.268 127.91 203.896 138.994 210.127C150.084 216.353 155.245 224.06 165.024 231.41C138.226 218.244 107.625 215.846 77.0353 215.846Z" fill="#FEE877" fill-opacity="0.65"/>
<path d="M269.059 232.256C264.378 231.953 265.618 224.684 267.928 222.317C270.233 219.944 270.021 213.231 275.04 216.186C270.473 217.521 273.49 224.678 268.515 224.839C268.347 227.404 268.63 229.876 269.059 232.256Z" fill="#E0E1E0"/>
<path d="M309.282 217.457C315.03 214.781 319.072 223.991 313.948 227.099C308.825 230.206 304.309 219.771 309.282 217.457Z" fill="#F1F2F2"/>
<path d="M235.233 209.711C242.719 207.354 245.916 216.759 239.533 219.568C233.157 222.376 229.224 211.605 235.233 209.711Z" fill="#EFF0F0"/>
<path d="M214.067 209.798C219.836 207.736 222.221 213.135 217.583 215.066C212.944 216.996 210.566 211.048 214.067 209.798Z" fill="#EFEFEF"/>
<path d="M343.828 236.796C343.285 226.178 350.905 237.625 343.828 236.796Z" fill="#E9EBEA"/>
<path d="M227.672 218.499C225.76 218.625 225.689 215.875 227.199 215.448C227.578 216.1 226.929 217.572 227.672 218.499Z" fill="#C7C9C8"/>
<path d="M196.335 215.567C198.088 214.853 199.691 217.548 197.761 218.362C195.823 219.183 194.782 216.196 196.335 215.567Z" fill="#BBBBBB"/>
<path d="M418.672 236.84C415.633 236.224 412.542 236.532 409.504 236.84C412.431 234.994 415.692 234.619 418.672 236.84Z" fill="#7C7C7C"/>
<path d="M418.009 253.374C414.775 253.05 410.717 252.288 407.483 253.374C406.927 253.506 405.88 253.14 405.728 253.974C407.29 253.974 408.845 253.974 410.407 253.974C412.208 254.154 414.647 254.573 416.84 254.573C428.408 254.441 438.695 259.337 449.59 261.773C442.514 263.045 432.326 261.905 425.624 264.791C418.928 267.671 414.12 270.761 407.921 274.223C401.716 277.679 397.95 282.047 391.119 284.585C384.294 287.129 377.031 285.431 371.27 279.725C365.51 274.013 375.189 266.165 382.335 267.773C377.978 265.829 373.159 269.519 368.299 268.373C367.738 264.395 372.036 264.737 368.299 262.373C384.306 253.038 402.939 245.868 421.518 246.774C412.237 244.206 402.705 246.162 394.429 250.182C386.148 254.195 376.703 252.894 368.299 256.373C369.697 247.824 380.019 248.076 385.259 243.774C380.627 244.944 376.387 247.308 371.808 248.574C382.306 241.116 396.628 235.644 409.822 235.374C412.536 235.32 415.296 235.266 418.009 235.374C430.899 237.726 446.549 244.08 450.76 258.173C440.087 255.713 429.273 253.374 418.009 253.374Z" fill="#FEE877" fill-opacity="0.65"/>
<path d="M282.285 226.207C289.604 225.318 291.402 234.053 284.29 235.213C277.185 236.372 275.761 227.001 282.285 226.207Z" fill="#F0F1F1"/>
<path d="M186.103 238.368C181.933 237.099 183.131 230.654 185.644 227.501C188.157 224.348 192.7 225.235 195.837 222.673C198.973 220.111 203.357 224.783 206.28 221.56C205.295 222.91 205.772 224.62 205.668 226.197C202.263 227.002 199.389 222.424 196.638 225.171C193.88 227.918 190.462 225.797 187.784 228.37C185.106 230.949 186.421 235.035 186.103 238.368Z" fill="#E3E4E4"/>
<path d="M507.29 243.063C507.29 243.063 507.303 244.48 507.29 244.48C505.342 243.034 502.802 244.012 501.184 241.646C503.034 242.595 505.929 239.79 507.29 243.063Z" fill="#585858"/>
<path d="M215.098 223.188C219.895 222.186 222.222 228.994 217.288 230.531C212.354 232.062 210.339 224.184 215.098 223.188Z" fill="#F0F1F0"/>
<path d="M356.647 243.337C358.717 241.795 361.986 245.26 359.982 247.076C357.977 248.893 354.632 244.839 356.647 243.337Z" fill="#E7E9E8"/>
<path d="M327.976 234.056C330.507 232.808 333.054 236.152 330.545 237.949C328.036 239.747 325.566 235.247 327.976 234.056Z" fill="#E4E6E5"/>
<path d="M343.708 271.984C335.699 269.3 346.534 263.795 345.84 259.751C345.141 255.706 343.477 246.775 349.912 246.008C347.368 249.57 345.513 254.704 346.652 259.478C347.791 264.253 342.05 266.572 343.708 271.984Z" fill="#DBDCDB"/>
<path d="M239.896 229.2C239.819 231.21 236.867 240.601 234.39 237.876C231.913 235.156 237.687 229.755 239.896 229.2Z" fill="#E4E5E5"/>
<path d="M194.126 230.899C198.006 229.712 200.493 235.032 196.897 236.59C193.306 238.148 190.71 231.948 194.126 230.899Z" fill="#E9EAEA"/>
<path d="M304.071 241.645C304.888 238.422 309.067 237.343 311.711 239.464C310.712 240.658 308.491 239.704 307.01 240.009C306.869 241.362 305.987 242.496 305.835 243.826C302.255 243.183 299.276 244.606 296.431 246.008C296.819 242.752 300.88 241.253 304.071 241.645Z" fill="#DEE0DF"/>
<path d="M129.625 259.277C134.846 259.792 141.038 259.792 146.218 259.277C150.562 259.277 154.911 259.277 159.255 259.277C159.54 264.184 159.279 269.001 154.319 269.364C149.359 269.727 145.744 270.78 140.89 270.78C136.031 270.774 132.706 271.984 127.847 271.984C123.699 271.984 119.55 271.984 115.402 271.984C102.418 271.73 88.6578 269.933 76.4204 267.01C64.189 264.082 50.8375 263.755 38.9557 260.487C27.0739 257.214 12.9995 260.79 4.58445 250.806C11.2631 245.221 17.6752 242.862 25.788 239.782C33.8949 236.696 41.8892 234.723 51.0035 233.459C60.1178 232.194 71.5196 231.928 81.0309 232.654C90.5423 233.38 103.064 232.158 112.439 232.654C121.814 233.15 132.772 233.767 141.08 236.085C149.388 238.402 157.347 240.98 160.44 248.386C147.154 246.25 133.151 242.777 119.55 244.756C124.137 245.082 128.908 245.058 133.376 245.766C137.844 246.474 140.932 247.073 145.495 247.914C150.052 248.755 152.031 249.796 156.843 251.454C161.649 253.118 157.886 256.119 153.329 256.252C148.772 256.385 144.25 256.379 139.741 256.899C135.231 257.426 130.14 257.498 125.477 257.462C120.813 257.426 116.368 256.863 111.847 256.857C107.325 256.851 102.963 255.217 98.8092 256.857C109.192 257.281 119.142 259.277 129.625 259.277ZM102.957 244.15C104.196 244.271 107.112 245.784 108.291 244.15C107.123 243.188 105.529 243.666 104.143 243.545C99.0225 243.346 93.7364 242.214 88.7348 243.545C92.9364 244.937 98.3114 243.763 102.957 244.15ZM60.2896 253.832C62.0319 254.001 64.6453 254.957 66.8083 254.437C65.9668 253.656 64.5209 253.202 63.2527 253.227C53.7176 252.228 43.501 251.49 34.8075 250.201C42.7425 252.621 51.6138 253.523 60.2896 253.832Z" fill="#FEE877" fill-opacity="0.65"/>
<path d="M417.144 255.175C415.06 255.175 412.743 254.106 411.032 253.647C413.116 253.647 415.433 254.717 417.144 255.175Z" fill="#939393"/>
<path d="M262.933 241.492C262.657 239.112 263.162 235.621 265.872 235.312C264.309 239.131 265.619 246.25 260.394 243.544C255.168 240.837 252.806 242.987 249.59 246.621C246.381 250.261 246.981 241.937 251.048 240.738C255.11 239.539 259.148 238.995 262.933 241.492Z" fill="#DDDEDE"/>
<path d="M332.555 243.102C337.406 241.804 339.887 249.271 335.146 251.727C330.412 254.183 327.827 244.366 332.555 243.102Z" fill="#ECECEC"/>
<path d="M274.688 247.567C276.914 247.108 277.258 251.912 275.212 252.113C273.166 252.314 272.938 247.923 274.688 247.567Z" fill="#E6E8E7"/>
<path d="M103.904 242.879C103.581 243.099 103.328 244.078 102.729 244.257C98.1214 243.375 92.791 246.05 88.6243 242.879C93.5844 239.845 98.8266 242.424 103.904 242.879Z" fill="#252525"/>
<path d="M207.859 243.335C212.351 241.607 216.381 246.149 212.098 248.521C207.821 250.894 204.038 244.805 207.859 243.335Z" fill="#E7E7E7"/>
<path d="M103.904 243.641C104.423 243.554 104.642 243.076 104.922 242.968C106.114 243.103 107.484 242.571 108.488 243.641C107.474 245.459 104.968 243.776 103.904 243.641Z" fill="#6C6C6C"/>
<path d="M316.822 250.913C321.667 248.873 324.696 257.085 320.227 260.612C315.758 264.146 312.449 252.754 316.822 250.913Z" fill="#F0F0F0"/>
<path d="M291.014 253.795C292.797 252.994 294.4 255.669 292.56 256.542C290.72 257.416 289.475 254.484 291.014 253.795Z" fill="#D8DAD9"/>
<path d="M488.043 268.928C487.945 268.928 487.645 268.076 487.432 268.022C495.848 264.579 506.25 262.259 514.936 267.116C506.599 263.872 496.862 266.717 488.043 268.928Z" fill="#494949"/>
<path d="M224.942 249.18C233.343 247.732 235.147 260.233 226.973 261.228C218.805 262.223 217.487 250.467 224.942 249.18Z" fill="#F1F2F2"/>
<path d="M542.392 258.806C542.5 258.987 542.392 259.76 542.392 259.76C540.908 258.73 539.09 258.577 537.856 256.899C538.813 256.289 541.385 257.157 542.392 258.806Z" fill="#838383"/>
<path d="M186.72 249.11C189.549 248.513 193.206 253.822 189.293 255.024C185.379 256.231 183.063 249.88 186.72 249.11Z" fill="#E5E6E5"/>
<path d="M247.836 249.339C248.822 248.34 251.621 250.275 250.195 251.711C248.769 253.147 246.771 250.418 247.836 249.339Z" fill="#DDDDDD"/>
<path d="M548.552 260.269C548.338 260.33 548.038 261.287 547.941 261.287C546.095 260.727 544.255 259.922 542.44 259.25C542.44 259.25 542.586 258.425 542.44 258.231C544.334 259.036 546.871 259.739 548.552 260.269Z" fill="#545454"/>
<path d="M265.872 261.45C265.833 268.622 272.768 260.028 265.872 261.45Z" fill="#DEE0DF"/>
<path d="M351.859 273.724C355.923 272.556 357.857 276.53 353.723 277.854C349.597 279.179 348.585 274.666 351.859 273.724Z" fill="#E2E4E3"/>
<path d="M187.217 278.096C179.852 276.451 184.848 269.741 187.355 265.401C189.856 261.061 193.98 259.179 198.64 256.704C196.824 259.925 196.499 264.503 191.425 262.816C191.041 268.188 182.642 271.684 187.217 278.096Z" fill="#E8E9E8"/>
<path d="M129.88 258.231C134.971 258.231 140.068 258.231 145.16 258.231C140.39 260.269 134.687 260.269 129.88 258.231Z" fill="#959595"/>
<path d="M313.04 274.832C310.76 274.843 308.551 282.53 307.359 278.41C306.166 274.291 310.02 273.212 309.339 269.307C308.657 265.397 319.32 268.465 312.452 270.004C312.2 271.737 313.451 273.078 313.04 274.832Z" fill="#E8E9E9"/>
<path d="M269.714 274.014C265.87 276.168 262.794 279.087 265.347 283.978C267.899 288.862 262.763 287.986 261.521 283.43C260.28 278.875 264.282 275.715 266.72 272.984C269.153 270.248 268.51 264.727 273.356 264.468C278.202 264.21 279.86 259.254 284.208 262.244C280.036 262.026 277.95 265.263 273.936 265.598C269.915 265.928 269.638 271.525 269.714 274.014Z" fill="#E2E2E2"/>
<path d="M202.969 261.412C205.718 260.526 207.678 264.661 205.017 265.713C202.357 266.765 200.24 262.292 202.969 261.412Z" fill="#E7E9E8"/>
<path d="M292.595 270.516C296.377 269.737 298.216 276.748 294.074 277.969C289.933 279.185 288.897 271.279 292.595 270.516Z" fill="#E9EAE9"/>
<path d="M414.088 285.736C412.083 285.227 409.982 285.009 407.976 285.736C410.01 283.591 412.033 283.809 414.088 285.736Z" fill="#898989"/>
<path d="M331.421 271.984C333.659 271.938 333.665 274.924 331.438 275.037C329.216 275.149 329.998 272.015 331.421 271.984Z" fill="#D0D2D1"/>
<path d="M427.381 325.012C431.914 328.481 441.337 328.434 446.887 330.862C455.334 334.554 462.694 340.2 471.123 343.734C463.988 338.036 455.275 333.993 446.887 330.277C445.102 328.276 440.71 327.709 437.891 326.896C435.071 326.088 430.389 325.053 427.381 324.427C405.403 321.881 383.951 317.271 362.358 313.31C362.263 310.057 364.616 307.541 365.313 304.534C370.013 304.218 374.807 304.955 379.5 304.534C383.851 307.248 391.24 306.324 396.051 308.629C391.092 306.002 385.116 305.078 379.5 303.949C375.215 303.071 369.942 303.492 366.496 301.023C379.837 299.069 393.829 299.625 406.691 302.778C420.991 306.283 435.148 311.666 448.661 317.991C436.176 310.221 421.505 305.973 407.283 302.193C394.987 298.197 381.794 296.536 368.86 295.757C374.056 291.375 381.457 291.966 387.971 290.685C394.485 289.403 400.473 286.18 407.283 285.811C409.417 285.694 411.651 285.729 413.785 285.811C420.476 286.139 427.871 289.427 433.44 292.686C439.014 295.945 444.482 298.367 448.809 303.217C453.136 308.073 456.038 312.854 459.715 318.166C463.385 323.479 467.783 326.533 472.453 331.301C477.117 336.076 481.48 338.433 484.731 344.893C487.988 351.346 484.222 360.538 476.443 356.606C468.67 352.674 461.352 354.494 453.39 353.681C445.427 352.867 436.478 353.183 429.195 351.884C421.919 350.58 416.457 348.421 410.977 344.173C405.492 339.925 401.023 337.293 395.46 333.788C403.517 333.741 411.681 337.632 419.105 337.298C412.372 335.081 405.45 332.588 398.416 331.448C391.382 330.307 381.327 330.412 374.813 328.481C368.298 326.55 358.09 325.807 361.176 317.991C368.553 317.944 375.711 321.097 383.047 320.916C390.383 320.735 397.813 323.444 404.918 323.256C412.023 323.069 420.618 326.059 427.381 325.012Z" fill="#FEE877" fill-opacity="0.65"/>
<path d="M243.65 267.622C253.089 265.501 258.157 279.202 248.288 282.28C238.42 285.358 234.229 269.737 243.65 267.622Z" fill="#F6F7F6"/>
<path d="M223.088 275.04C223.26 272.776 225.506 269.026 227.672 271.022C226.704 272.957 224.853 274.484 223.088 275.04Z" fill="#D1D3D2"/>
<path d="M189.45 272.275C193.753 270.843 195.823 275.083 192.18 276.338C188.544 277.594 186.286 273.329 189.45 272.275Z" fill="#E7E7E7"/>
<path d="M271.313 280.052C277.265 277.691 280.834 285.753 275.453 288.326C270.072 290.898 266.223 282.073 271.313 280.052Z" fill="#F0F0F0"/>
<path d="M145.171 279.232C141.057 279.085 136.801 279.633 132.705 279.232C131.542 279.119 130.384 278.819 129.143 278.666C125.481 278.208 122.091 277.54 118.458 276.969C121.213 278.807 125.077 279.039 128.55 279.232C129.66 279.384 131.221 279.769 132.705 279.797C136.973 279.877 141.075 279.792 145.171 280.363C148.828 281.461 156.527 280.442 155.262 286.021C152.081 285.036 149.255 285.438 153.482 287.152C126.205 288.431 100.264 278.134 73.344 284.889C76.1339 279.922 79.844 273.846 86.997 273.574C94.1501 273.302 103.879 273.998 111.335 274.14C118.791 274.287 129.048 273.97 136.255 274.717C143.455 275.469 151.944 274.813 155.856 279.797C152.158 280.12 148.744 279.362 145.171 279.232Z" fill="#FEE877" fill-opacity="0.65"/>
<path d="M334.856 282.834C338.357 281.759 341.157 286.596 337.493 288.455C333.828 290.31 331.209 283.951 334.856 282.834Z" fill="#E7E7E7"/>
<path d="M129.88 279.242C129.737 279.269 129.494 279.597 129.286 279.624C125.809 279.494 121.941 279.337 119.184 278.096C122.821 278.482 126.214 278.933 129.88 279.242Z" fill="#474747"/>
<path d="M204.009 279.798C208.648 278.501 211.652 284.785 207.025 286.906C202.399 289.026 199.371 281.09 204.009 279.798Z" fill="#EDEEEE"/>
<path d="M145.128 281.152C141.122 280.397 137.11 280.509 132.936 280.405C132.936 280.405 133.058 279.747 132.936 279.658C136.942 280.188 141.105 279.464 145.128 279.658C145.239 279.718 145.012 281.077 145.128 281.152Z" fill="#343434"/>
<path d="M318.2 288.857C323.709 287.982 326.601 296.214 320.6 297.786C314.599 299.357 312.301 289.797 318.2 288.857Z" fill="#ECEDED"/>
<path d="M293.572 288.821C298.498 288.227 299.823 296.996 294.701 297.898C289.573 298.807 288.629 289.414 293.572 288.821Z" fill="#EEEEEE"/>
<path d="M406.448 303.109C406.653 303.104 406.948 302.543 407.051 302.543C421.549 306.199 436.505 310.308 449.232 317.823C435.457 311.706 421.025 306.499 406.448 303.109Z" fill="#595959"/>
<path d="M348.384 290.341C341.662 290.003 348.081 293.895 348.384 290.341Z" fill="#C9CBCA"/>
<path d="M378.944 304.645C378.944 304.645 378.98 304.078 378.944 304.072C384.647 305.178 390.716 306.083 395.752 308.656C390.866 306.398 383.362 307.303 378.944 304.645Z" fill="#515151"/>
<path d="M182.827 287.291C186.836 286.813 187.938 292.743 183.792 293.335C179.653 293.932 179.03 287.743 182.827 287.291Z" fill="#EAECEB"/>
<path d="M86.1579 309.538C80.0109 310.574 72.1243 311.551 66.1711 313.044C60.218 314.536 51.5263 314.074 46.7838 317.732C37.9275 319.985 28.5013 322.631 20.9261 327.682C29.4357 324.317 37.8629 320.571 46.7838 318.317C59.5775 314.29 73.7757 312.616 86.7456 310.123C91.7996 310.006 96.1073 308.636 101.044 307.975C105.98 307.313 110.505 306.763 115.536 306.02C120.572 305.277 124.909 304.896 130.233 304.27C135.558 303.649 140.618 305.095 146.101 304.855C151.584 304.615 155.95 305.915 153.74 313.049C142.698 315.982 131.391 317.533 120.243 320.073C118.874 320.383 117.563 321.08 116.129 321.244C117.228 322.432 119.761 321.314 120.831 320.659C132.085 319.564 142.757 316.298 153.74 314.22C151.172 319.219 146.988 323.023 141.805 325.745C136.627 328.472 130.815 329.696 125.074 331.908C119.332 334.126 113.115 335.795 106.738 337.059C100.368 338.329 93.6743 339.593 86.7456 339.974C79.8169 340.354 71.0077 340.793 63.8263 340.559C56.6391 340.325 50.6389 342.262 43.8454 343.486C37.0519 344.709 28.0017 341.94 21.555 342.274C15.1082 342.608 4.68283 342.063 6.27543 334.747C7.86802 327.436 11.4646 325.517 15.784 320.805C20.0975 316.087 24.2524 314.753 29.0184 311.159C33.7845 307.565 38.527 305.323 43.7103 302.379C48.8936 299.435 53.5479 297.223 59.313 295.092C65.084 292.962 71.2663 291.27 77.5368 289.83C83.8073 288.384 91.0827 287.448 97.9114 287.296C104.74 287.144 113.35 287.501 119.655 289.052C125.955 290.603 133.242 290.456 139.007 292.605C144.767 294.759 152.777 294.46 154.328 300.173C130.474 299.031 108.754 305.733 86.1579 309.538Z" fill="#FEE877" fill-opacity="0.65"/>
<path d="M248.414 292.27C251.37 290.357 253.58 295.44 250.942 297.523C248.299 299.606 246.319 293.631 248.414 292.27Z" fill="#E7E7E7"/>
<path d="M212.392 294.904C213.446 293.539 215.269 292.372 216.976 291.848C216.008 293.32 214.157 294.481 212.392 294.904Z" fill="#A4A6A5"/>
<path d="M330.05 308.656C329.973 304.912 333.971 301.75 337.688 301.016C335.333 302.961 332.099 305.853 330.05 308.656Z" fill="#C4C6C5"/>
<path d="M271.753 302.95C275.585 301.065 278.433 306.237 275.087 308.237C271.74 310.238 268.617 304.494 271.753 302.95Z" fill="#E8E9E9"/>
<path d="M229.18 305.359C229.815 297.961 235.502 302.939 238.177 299.488C239.232 303.095 235.682 304.165 233.378 302.749C232.958 312.306 221.97 309.253 223.181 300.792C226.156 300.284 226.24 305.333 229.18 305.359Z" fill="#E3E4E3"/>
<path d="M310.194 325.464C310.028 319.717 311.919 312.808 316.296 310.184C314.216 314.947 313.711 322.966 310.194 325.464Z" fill="#DDDEDD"/>
<path d="M209.253 302.983C216.85 300.343 222.234 310.296 215.3 314.065C208.365 317.834 202.531 305.316 209.253 302.983Z" fill="#F3F3F3"/>
<path d="M446.114 331.02C446.253 331.175 446.114 331.575 446.114 331.575C440.914 329.269 432.087 329.314 427.84 326.019C427.84 326.019 427.912 325.486 427.84 325.463C430.658 326.058 435.044 327.041 437.686 327.808C440.327 328.58 444.442 329.119 446.114 331.02Z" fill="#545454"/>
<path d="M203.125 316.701C198.499 316.191 196.476 306.124 201.861 307.21C198.789 310.793 203.245 314.53 206.285 316.701C201.134 321.162 206.247 325.213 209.445 328.565C201.444 329.188 202.79 341.663 210.709 339.243C212.144 344.611 203.188 341.942 201.722 338.187C200.249 334.432 201.469 330.256 205.021 327.379C200.572 325.124 200.799 320.159 203.125 316.701Z" fill="#E4E6E5"/>
<path d="M301.466 314.871C304.939 313.91 307.506 319.934 303.741 322.059C299.975 324.184 297.593 315.943 301.466 314.871Z" fill="#ECEEED"/>
<path d="M190.921 308.736C193.65 308.049 195.484 311.935 192.588 313.067C189.698 314.198 188.158 309.429 190.921 308.736Z" fill="#DCDEDD"/>
<path d="M175.39 308.826C178.119 307.782 180.203 311.837 177.55 313.035C174.896 314.232 172.765 309.831 175.39 308.826Z" fill="#E0E2E1"/>
<path d="M255.817 316.296C254.408 313.763 255.37 309.365 258.232 310.317C257.053 312.002 257.624 315.758 255.817 316.296Z" fill="#E1E1E1"/>
<path d="M446.176 330.646C446.176 330.646 446.325 330.216 446.176 330.048C454.637 333.845 463.427 337.976 470.624 343.8C462.121 340.189 454.697 334.419 446.176 330.646Z" fill="#2D2D2D"/>
<path d="M457.131 414.572C452.122 414.079 446.169 414.079 441.202 414.572C423.184 417.575 402.528 413.971 387.649 405.409C372.77 396.847 363.483 387.4 358.014 371.251C370.982 378.465 383.478 385.764 396.817 392.448C410.157 399.133 425.42 406.901 440.022 407.352C411.95 400.902 384.398 386.636 361.554 368.242C359.808 366.594 357.908 364.524 356.244 362.827C353.719 359.392 349.914 356.431 347.837 352.749C345.76 349.067 341.418 346.329 340.781 341.906C340.144 337.484 347.985 345.438 350.345 345.378C348.339 342.965 346.109 340.144 343.265 338.76C342.929 336.985 344.622 336.088 345.035 334.548C349.112 336.04 352.221 339.993 356.197 341.816C360.174 343.645 363.684 347.051 367.631 348.808C371.584 350.559 375.389 354.253 379.431 355.42C383.478 356.594 387.608 361.612 391.643 361.624C393.39 364.061 397.242 365.216 399.313 367.641C400.481 369.362 401.608 371.798 403.443 372.454C402.068 370.023 400.499 367.436 398.133 365.836C396.422 363.633 393.968 362.43 391.643 361.022C377.041 352.46 362.669 343.056 350.345 330.938C368.746 326.076 383.649 342.213 396.817 353.339C409.986 364.464 419.779 377.635 434.564 386.444C449.355 395.246 465.739 402.972 481.32 410.361C476.583 418.128 464.996 414.572 457.131 414.572Z" fill="#FEE877" fill-opacity="0.65"/>
<path d="M237.509 311.776C243.692 310.791 245.153 321.421 239.031 322.351C232.914 323.275 231.808 312.683 237.509 311.776Z" fill="#F1F1F1"/>
<path d="M277.415 320.919C280.932 320.354 283.045 326.03 278.765 326.909C274.493 327.781 273.696 321.518 277.415 320.919Z" fill="#E0E0E0"/>
<path d="M324.097 321.109C327.871 319.601 330.408 325.942 326.724 328.135C323.046 330.327 320.605 322.505 324.097 321.109Z" fill="#EBECEC"/>
<path d="M462.557 363.701C463.941 364.777 467.627 365.64 469.035 364.884C466.874 364.322 464.771 363.547 462.557 363.11C452.769 361.555 442.992 359.906 433.699 356.607C441.355 356.341 450.713 357.878 459.017 357.795C467.327 357.706 473.175 362.081 481.403 362.519C489.624 362.95 491.638 350.907 489.648 344.782C497.039 348.294 505.478 356.411 511.291 362.075C517.11 367.739 530.679 377.896 520.319 382.667C509.96 387.433 500.36 387.87 490.243 390.903C480.119 393.936 465.301 395.733 455.625 392.535C445.949 389.336 439.164 382.981 430.607 378.629C422.05 374.284 417.144 366.935 410.73 360.154C422.291 365.262 433.493 369.028 445.937 372.108C458.381 375.188 473.717 379.569 487.292 377.89C487.987 377.991 489.188 378.422 490.237 378.482C494.241 378.7 498.947 379.847 502.604 378.482C498.7 378.233 494.872 377.583 490.826 377.89C490.26 377.79 489.371 377.352 488.47 377.299C450.902 376.134 414.6 362.755 386.584 337.688C392.915 339.195 399.058 342.346 404.706 345.509C410.353 348.672 415.377 352.474 421.791 353.781C428.198 355.093 434.199 359.373 440.76 360.16C447.321 360.94 455.802 365.037 462.557 363.701Z" fill="#FEE877" fill-opacity="0.65"/>
<path d="M259.955 319.671C266.689 317.382 270.6 328.053 264 331.094C257.406 334.141 253.613 321.828 259.955 319.671Z" fill="#F1F1F1"/>
<path d="M302.836 339.098C302.456 333.774 309.544 331.347 313.24 328.52C312.243 333.821 301.612 333.562 304.06 341.449C297.352 341.214 295.314 346.803 299.164 351.44C291.183 349.336 295.577 338.763 302.836 339.098Z" fill="#DDDFDE"/>
<path d="M58.1555 392.573C62.4499 388.287 66.922 383.824 71.1868 379.568C76.2867 375.063 81.0846 370.098 86.1432 365.528C91.2076 360.959 96.3372 356.685 101.941 352.919C107.544 349.154 113.669 345.305 119.711 342.279C125.758 339.258 133.642 336.084 139.761 333.914C145.88 331.745 155.339 323.954 158.26 332.277C143.031 336.373 129.295 346.381 117.211 356.336C105.127 366.285 91.9362 373.668 81.2564 384.888C85.0651 382.145 89.1937 378.539 93.2511 375.577C97.3027 372.616 100.975 369.601 105.127 366.74C109.286 363.879 113.219 361.195 117.537 358.435C121.861 355.674 125.729 352.505 130.284 349.875C134.839 347.244 137.866 344.04 143.049 341.924C148.237 339.808 151.637 337.721 157.62 335.776C163.608 333.837 158.899 342.302 154.854 344.838C150.808 347.368 147.977 351.926 144.192 354.888C140.407 357.849 136.562 361.101 133.382 364.789C143.049 357.246 153.752 350.484 162.998 342.326C164.408 342.941 165.125 344.626 166.552 345.282C159.545 362.182 140.952 368.082 127.014 377.942C113.071 387.796 98.4281 396.994 84.3662 406.908C70.2983 416.821 54.5126 425.038 39.7932 433.952C38.8632 417.702 48.074 404.348 58.1555 392.573ZM100.803 386.661C109.771 381.861 119.586 376.275 126.866 369.518C118.325 375.459 109.114 380.673 100.803 386.661ZM60.5248 403.213C65.9742 398.821 72.0634 393.985 76.5178 389.026C71.1453 393.518 64.3868 397.414 60.5248 403.213Z" fill="#FEE877" fill-opacity="0.65"/>
<path d="M240.168 339.135C237.846 335.925 240.238 329.81 244.479 332.063C237.975 331.676 243.364 338.069 241.37 340.348C239.376 342.628 236.175 344.837 236.396 348.384C233.55 345.354 236.832 340.408 240.168 339.135Z" fill="#D9DADA"/>
<path d="M189.408 331.651C194.488 330.607 195.983 340.794 190.95 342.153C185.916 343.52 184.61 332.636 189.408 331.651Z" fill="#ECECEC"/>
<path d="M344.699 395.751C344.901 397.794 345.22 399.55 345.291 401.623C346.232 399.509 346.304 395.475 345.291 393.402C344.699 379.15 335.146 367.546 330.493 354.644C335.063 353.769 338.875 356.917 341.888 359.783C344.901 362.648 347.126 364.68 349.482 368.104C351.838 371.527 353.809 374.745 355.165 378.909C356.52 383.078 356.029 388.863 355.348 393.396C354.668 397.935 353.425 401.999 351.992 406.509C350.56 411.025 351.56 416.034 351.803 421.002C352.045 425.97 351.234 431.701 351.803 436.857C352.371 442.013 351.998 445.836 354.182 450.939C356.372 456.042 353.436 458.655 348.991 455.502C344.54 452.349 343.214 450.745 341.698 446.294C340.177 441.849 339.171 438.772 337.584 434.52C335.992 430.274 335.903 425.559 335.098 421.131C334.287 416.703 333.18 411.823 332.257 407.507C331.328 403.191 330.013 399.315 328.587 395.293C327.154 391.276 324.751 388.087 323.254 384.141C321.756 380.195 318.684 377.676 318.062 373.436C317.441 369.196 317.908 363.711 321.022 360.517C323.668 361.979 325.177 365.567 328.125 366.389C327.219 363.459 324.343 361.562 323.39 358.755C331.511 356.412 332.369 367.851 337.052 373.389C341.734 378.927 343.995 388.528 344.699 395.751Z" fill="#FEE877" fill-opacity="0.65"/>
<path d="M222.402 334.791C227.14 333.432 230.003 341.137 225.182 343.445C220.361 345.754 217.903 336.082 222.402 334.791Z" fill="#E9EBEA"/>
<path d="M270.541 353.237C269.878 348.563 272.316 344.014 276.568 343.8C275.664 345.92 271.713 346.14 272.733 350.092C273.752 354.043 270.946 354.357 269.039 356.547C267.127 358.736 269.193 362.769 269.445 365.192C264.053 364.053 265.045 353.898 270.541 353.237Z" fill="#D6D6D6"/>
<path d="M248.956 336.357C251.979 334.896 253.489 342.002 250.491 343.586C247.498 345.162 246.418 337.578 248.956 336.357Z" fill="#E6E6E6"/>
<path d="M283.492 345.83C286.853 343.771 290.899 348.564 287.518 350.905C284.136 353.246 281.203 347.233 283.492 345.83Z" fill="#E9E9E9"/>
<path d="M397.632 365.053C398.067 365.569 398.426 366.197 398.808 366.72C396.745 364.48 392.907 363.414 391.168 361.163C391.168 361.163 391.291 360.669 391.168 360.608C393.483 361.908 395.928 363.019 397.632 365.053Z" fill="#828282"/>
<path d="M39.728 375.888C43.6145 364.366 53.428 355.712 64.9518 350.253C76.4756 344.793 94.6223 343.808 106.96 342.272C94.5692 345.854 81.5651 351.412 69.3513 355.156C57.1375 358.9 50.5264 369.854 39.728 375.888Z" fill="#FEE877" fill-opacity="0.65"/>
<path d="M360.608 368.248C358.927 366.476 357.43 364.33 356.024 362.136C357.46 364.051 359.1 366.387 360.608 368.248Z" fill="#707070"/>
<path d="M461.456 363.013C461.456 363.013 461.546 362.171 461.456 362.136C464.067 362.785 466.547 363.934 469.096 364.767C467.436 365.889 463.088 364.609 461.456 363.013Z" fill="#585858"/>
<path d="M398.638 368.387C398.197 367.865 397.783 367.237 397.28 366.72C400.003 368.198 401.81 370.587 403.392 372.832C401.28 372.226 399.983 369.976 398.638 368.387Z" fill="#4D4D4D"/>
<path d="M243.216 353.168C250.096 351.439 253.72 361.372 247.087 364.666C240.455 367.96 236.857 354.765 243.216 353.168Z" fill="#F3F4F3"/>
<path d="M153.699 381.457C156.022 379.13 158.518 376.631 160.811 374.335C167.241 369.224 173.476 363.894 180.368 359.496C181.139 360.707 181.939 361.841 182.739 363.058C159.217 389.624 142.937 420.724 117.548 446.15C112.747 449.789 109.346 455.801 105.695 460.395C110.436 456.104 114.721 449.949 119.326 444.963C143.044 419.662 163.199 391.689 185.702 365.432C195.588 371.248 183.474 379.854 178.454 386.068C173.434 392.283 167.544 399.749 162.737 406.533C157.931 413.323 152.627 421.027 148.318 428.297C144.015 435.574 138.611 442.797 133.413 449.575C128.216 456.353 123.219 463.369 116.511 468.853C109.802 474.331 101.736 478.201 94.5828 483.097C87.4236 487.988 79.3992 492.38 71.9141 496.6C70.2309 471.209 90.535 453.967 103.372 434.921C116.208 415.881 127.309 398.598 142.439 380.863C147.53 375.765 153.178 370.904 157.848 365.432C161.884 359.087 168.824 354.98 175.627 352.968C180.025 358.351 171.822 361.479 168.338 365.254C164.847 369.023 159.756 372.328 156.526 376.572C153.296 380.816 149.16 384.626 146.588 389.173C149.219 386.941 151.412 384.139 153.699 381.457ZM124.66 417.662C121.234 422.979 116.6 427.668 114.585 433.687C117.921 428.428 122.224 423.163 125.252 417.662C130.213 414.261 132.465 406.432 136.513 402.23C131.671 406.64 128.613 412.539 124.66 417.662Z" fill="#FEE877" fill-opacity="0.65"/>
<path d="M344.373 469.723C344.195 471.559 344.195 473.77 344.373 475.571C347.592 480.722 342.131 492.668 336.092 490.142C330.054 487.616 325.485 484.236 321.351 479.488C317.222 474.734 315.116 469.449 310.613 464.899C306.11 460.35 301.761 457.246 298.43 451.732C295.098 446.218 293.224 439.932 291.386 433.512C289.542 427.098 287.502 419.976 286.669 413.006C285.836 406.036 285.384 396.64 286.074 389.618C286.764 382.595 285.794 374.047 291.428 370.322C290.577 393.12 300.066 414.83 312.844 432.302C310.572 427.343 308.031 422.724 305.574 417.812C303.112 412.907 301.327 406.609 300.31 401.353C299.292 396.102 297.448 388.162 297.335 383.227C297.222 378.297 293.629 367.545 298.126 364.627C302.618 361.703 304.682 372.257 307.341 375.146C309.994 378.04 312.868 385.039 315.67 388.594C318.472 392.155 321.696 398.032 322.957 402.481C325.111 410.071 325.331 418.169 327.121 425.87C327.752 418.491 325.402 409.702 323.552 402.481C318.65 388.583 311.577 375.087 304.515 362.136C319.459 362.984 322.184 376.432 328.121 388.051C334.052 399.669 332.237 415.082 337.96 427.495C343.689 439.909 344.373 455.386 344.373 469.723ZM321.172 452.182C320.893 456.281 324.022 460 324.742 463.876C325.729 460.269 322.136 456.117 321.767 452.182C320.179 447.434 318.775 442.072 315.818 438.149C317.74 442.721 319.126 447.826 321.172 452.182Z" fill="#FEE877" fill-opacity="0.65"/>
<path d="M215.899 356.227C222.283 354.582 226.319 363.401 219.681 366.255C213.044 369.109 209.182 357.955 215.899 356.227Z" fill="#EFF0EF"/>
<path d="M490.488 378.18C490.31 378.218 490.111 378.859 489.978 378.944C489.072 378.867 488.033 378.309 487.432 378.18C487.956 378.08 488.155 377.545 488.45 377.416C489.23 377.484 489.999 378.05 490.488 378.18Z" fill="#545454"/>
<path d="M490.488 378.187C490.639 378.113 490.866 377.542 491.07 377.508C495.069 377.155 498.853 377.902 502.712 378.187C499.097 379.756 494.446 378.438 490.488 378.187Z" fill="#2D2D2D"/>
<path d="M142.104 382C146.735 376.581 152.336 371.768 157.384 366.72C152.753 372.138 147.152 376.952 142.104 382Z" fill="#7E7E7E"/>
<path d="M100.848 385.056C109.131 379.185 118.311 374.073 126.824 368.248C119.568 374.872 109.786 380.35 100.848 385.056Z" fill="#7B7B7B"/>
<path d="M363.929 392.313C365.59 394.57 367.791 396.527 369.861 398.315C374.654 402.691 379.375 406.454 384.245 410.769C389.115 415.084 390.776 422.173 395.367 426.524C392.39 417.263 385.141 410.127 379.352 402.516C383.32 406.574 390.557 406.73 394.353 410.745C398.155 414.754 397.058 422.743 400.842 427.587C404.627 432.43 403.079 442.129 403.079 448.131C403.079 452.837 401.922 459.661 402.485 463.736C399.858 448.635 392.579 434.249 384.097 421.723C387.087 428.133 390.308 432.82 393.125 439.596C395.949 446.367 398.292 452.17 398.926 460.135C399.561 468.094 401.002 476.022 399.52 484.743C398.037 493.464 389.287 486.82 385.728 481.292C382.175 475.758 375.615 473.333 369.997 470.8C364.38 468.268 358.359 463.178 358.591 455.934C358.822 448.689 354.237 439.806 356.811 432.526C359.16 440.719 362.778 448.941 367.488 455.934C362.073 441.985 356.218 428.991 356.218 413.32C356.218 411.549 356.04 409.677 356.218 407.918C357.98 401.4 359.724 394.57 360.963 388.112C362.144 389.246 362.903 390.915 363.929 392.313Z" fill="#FEE877" fill-opacity="0.65"/>
<path d="M142.104 375.888C142.965 374.74 144.458 371.392 144.651 371.134C144.987 370.224 145.97 369.878 146.688 369.776C145.502 372.105 143.714 374.054 142.104 375.888Z" fill="#808281"/>
<path d="M142.199 375.459C129.96 385.942 121.103 399.601 110.818 411.669C108.497 413.996 106.004 416.495 103.713 418.793C96.4062 426.017 87.572 431.193 80.0287 437.788C90.2898 432.38 98.8575 424.129 107.857 416.418C109.213 415.255 112.014 413.331 112.594 412.857C105.305 422.319 100.776 435.521 88.7562 440.602C76.7366 445.689 61.6499 446.087 50.4237 453.816C55.0362 445.814 53.2598 430.795 61.6262 425.275C69.9985 419.76 78.7142 416.614 86.5418 410.482C84.7477 412.892 82.326 415.047 80.0287 417.012C75.8603 420.585 71.7274 424.735 68.1867 428.884C67.3874 430.505 65.4749 431.401 64.6341 433.039C78.0452 421.832 89.8279 407.17 104.897 398.61C103.529 403.258 97.5312 405.567 95.4233 409.888C89.3483 415.973 81.882 421.387 76.4761 428.29C83.3208 423.458 89.0404 415.92 95.4233 410.482C110.244 395.624 127.089 381.098 145.16 371.304C144.935 371.529 143.2 374.456 142.199 375.459Z" fill="#FEE877" fill-opacity="0.65"/>
<path d="M281.016 379.921C281.296 382.183 281.063 384.724 281.016 387.01C280.789 393.219 278.643 399.582 276.923 405.312C275.196 411.037 273.96 416.762 272.135 422.321C270.309 427.88 267.819 433.215 267.014 438.992C266.215 444.776 264.32 451.422 262.226 456.592C260.127 461.755 257.351 466.304 254.628 470.752C251.91 475.207 248.009 479.2 243.839 481.682C239.669 484.157 236.03 490.561 231.58 491.713C227.131 492.859 218.313 497.195 214.68 493.793C211.053 490.384 212.709 479.431 213.175 474.25C213.642 469.075 217.001 462.47 218.43 457.123C219.859 451.771 221.153 444.918 222.512 439.4C223.865 433.876 225.708 427.892 227.405 422.498C229.102 417.11 232.414 412.65 234.992 407.734C237.564 402.819 239.471 398.064 242.346 393.331C245.227 388.593 246.306 381.935 253.024 382.284C249.268 406.382 239.494 429.977 237.278 453.768C243.04 429.298 250.732 405.377 257.106 381.102C259.725 380.399 262.046 378.751 264.687 378.149C265.078 385.338 263.352 393.314 263.13 400.202C262.909 407.091 259.643 413.223 259.048 419.698C258.447 426.173 254.354 432.08 254.773 438.407C252.551 440.392 252.709 445.432 250.819 447.99C248.936 450.554 247.956 454.122 246.026 456.721C250.913 452.332 252.931 444.67 255.357 438.407C260.943 419.68 267.16 400.84 270.519 381.693C271.184 386.727 271.102 391.843 271.102 397.053C271.102 400.397 271.167 403.753 271.102 407.096C271.948 409.985 269.347 413.087 270.519 415.367C274.415 401.844 273.488 386.957 275.185 372.832C278.754 373.281 280.287 376.932 281.016 379.921ZM230.863 470.309C228.484 475.467 225.504 480.181 222.699 485.079C226.6 481.51 229.312 475.455 231.446 470.309C232.823 469.14 233.138 466.794 233.196 464.992C231.65 466.28 232.175 468.738 230.863 470.309Z" fill="#FEE877" fill-opacity="0.65"/>
<path d="M346.856 383.747C346.945 383.358 347.484 382.664 347.539 382C348.706 383.541 348.624 386.541 347.539 388.112C347.457 386.571 347.088 385.266 346.856 383.747Z" fill="#636363"/>
<path d="M187.561 462.457C188.786 468.336 186.371 476.563 185.802 482.566C185.228 488.57 180.579 492.006 177.46 496.625C174.341 501.244 172.29 505.999 168.655 510.216C165.02 514.439 161.198 517.574 156.537 520.466C151.871 523.352 146.712 525.091 142.555 528.835C138.399 532.579 133.369 533.714 129.57 538.209C125.777 542.71 117.898 545.212 119.364 537.375C120.829 529.539 121.41 524.878 122.295 517.858C123.18 510.837 125.068 506.035 126.592 499.718C128.116 493.402 129.125 487.05 131.094 481.194C133.058 475.339 134.231 469.72 136.693 464.368C139.155 459.015 141.26 454.106 143.728 448.99C146.196 443.874 148.717 439.019 151.261 434.115C153.805 429.206 156.602 424.54 159.568 420.021C162.529 415.497 165.899 411.315 168.936 406.998C171.973 402.68 175.15 398.026 178.328 393.998C181.499 389.97 185.41 385.54 188.587 381.873C191.77 378.206 197.164 371.712 201.045 375.515C185.451 391.378 176.399 410.677 165.853 429.91C155.306 449.144 144.472 471.643 140.076 492.621C142.632 484.666 145.621 475.865 148.687 468.188C151.759 460.517 154.978 452.923 158.654 445.72C162.335 438.51 166.069 431.495 170.109 424.741C174.148 417.987 179.096 411.167 183.018 404.644C186.934 398.114 193.64 392.892 197.674 386.901C201.701 380.903 211.949 373.25 216.099 381.619C220.25 389.988 208.472 395.169 205.6 401.994C202.727 408.819 196.015 415.077 192.427 421.825C188.845 428.574 183.803 435.085 180.087 441.905C176.376 448.724 171.955 455.543 168.08 462.321C164.205 469.099 159.463 475.688 155.904 482.566C175.725 456.277 189.965 425.108 211.597 400.356C202.387 420.524 196.49 443.951 183.997 462.41C171.498 480.863 162.417 499.777 150.042 518.053C164.287 500.836 174.488 480.479 187.561 462.457Z" fill="#FEE877" fill-opacity="0.65"/>
<path d="M369.776 400.336C367.643 398.059 365.375 395.568 363.664 392.696C365.406 395.194 367.857 397.937 369.776 400.336Z" fill="#777777"/>
<path d="M152.8 382C155.105 379.3 157.709 376.69 160.44 374.36C157.977 376.824 155.296 379.504 152.8 382Z" fill="#7B7B7B"/>
<path d="M208.81 477.852C208.579 479.756 208.632 481.902 208.81 483.747C208.157 488.445 210.32 497.978 216.533 497.3C222.745 496.622 227.257 494.435 233.184 493.179C232.845 499.623 229.243 505.223 225.307 510.128C221.372 515.033 218.584 519.596 215.213 524.878C211.842 530.16 208.484 534.346 205.79 540.294C203.103 546.248 200.678 550.805 197.973 557.302C195.268 563.798 184.074 564.476 186.856 556.3C189.638 548.129 188.658 542.794 190.393 535.047C192.135 527.307 191.802 519.572 191.172 511.849C190.542 504.127 189.359 496.705 189.193 489.053C189.026 481.401 190.922 473.743 191.57 466.651C192.218 459.559 194.234 453.899 196.968 447.833C199.703 441.761 201.712 436.078 204.102 430.147C206.492 424.211 209.34 418.834 211.914 413.134C214.494 407.439 217.347 402.039 220.242 396.633C223.138 391.227 226.372 386.393 232.59 384.707C227.584 393.844 221.289 402.628 218.786 412.874C216.283 423.114 209.613 433.62 208.81 444.249C207.413 445.475 207.467 448.375 207.027 450.144C206.647 451.659 205.612 453.563 205.838 455.45C207.497 454.436 206.575 452.154 207.622 450.734C208.168 448.552 208.68 446.401 209.405 444.249C213.715 433.419 217.894 420.627 223.488 410.469C229.088 400.306 233.939 388.975 244.479 383.528C239.302 393.196 233.69 401.479 228.381 411.188C223.066 420.898 219.042 431.904 217.127 443.064C215.219 454.224 209.042 466.232 208.81 477.852ZM201.082 477.262C200.66 479.025 200.755 480.728 200.488 482.568C200.25 484.207 198.954 487.484 200.488 489.053C200.066 486.924 201.219 485.227 201.082 483.157C201.32 481.342 201.968 479.101 201.677 477.262C202.883 476.207 203.686 472.534 202.866 471.367C202.497 473.389 201.451 475.216 201.082 477.262Z" fill="#FEE877" fill-opacity="0.65"/>
<path d="M456.872 414.088C451.778 414.088 446.685 414.088 441.592 414.088C446.357 412.05 452.067 412.05 456.872 414.088Z" fill="#838383"/>
<path d="M322.408 401.929C322.408 401.929 322.926 401.782 323.047 401.929C325.034 409.457 327.557 418.619 326.88 426.312C324.957 418.284 324.721 409.841 322.408 401.929Z" fill="#353535"/>
<path d="M467.568 417.144C469.597 417.144 471.657 417.983 473.68 417.144C471.663 419.662 469.573 418.636 467.568 417.144Z" fill="#757575"/>
<path d="M278.16 461.522C279.71 469.658 279.862 479.986 283.651 486.655C280.485 478.525 281.711 468.91 278.77 460.938C275.878 443.684 280.442 426.184 283.651 409.503C286.958 434.151 299.277 459.079 294.634 484.317C298.185 474.013 296.275 462.037 294.634 451.586C302.919 460.301 308.069 472.563 304.396 484.317C300.717 496.071 295.122 504.651 292.193 516.463C277.94 507.556 274.139 493.546 270.43 478.279C266.72 463.018 270.259 442.854 276.94 428.791C276.159 439.113 276.14 450.92 278.16 461.522Z" fill="#FEE877" fill-opacity="0.65"/>
<path d="M124.379 418.606C124.171 418.754 123.768 418.606 123.768 418.606C127.844 413.049 130.998 406.648 135.992 401.864C131.817 406.423 129.495 414.916 124.379 418.606Z" fill="#717171"/>
<path d="M112.516 412.866C111.836 413.232 108.551 414.718 106.96 415.616C109.141 414.016 111.489 411.752 114.6 411.032C114.517 411.917 113.107 412.288 112.516 412.866Z" fill="#7A7C7B"/>
<path d="M103.904 418.672C106.368 416.208 109.049 413.528 111.544 411.032C109.24 413.731 106.636 416.342 103.904 418.672Z" fill="#6E6E6E"/>
<path d="M124.702 417.144C124.702 417.144 125.094 417.287 125.296 417.144C122.259 422.915 117.945 428.436 114.6 433.952C116.62 427.639 121.267 422.722 124.702 417.144Z" fill="#535353"/>
<path d="M402.038 464.056C401.404 460.184 402.705 453.702 402.705 449.232C402.939 451.267 403.185 456.125 403.372 458.354C403.559 460.583 402.378 466.131 402.038 464.056Z" fill="#858585"/>
<path d="M322.408 452.288C322.402 452.253 321.797 452.288 321.797 452.288C319.694 448.019 318.27 443.017 316.296 438.536C319.334 442.38 320.776 447.635 322.408 452.288Z" fill="#6C6C6C"/>
<path d="M342.957 542.596C341.21 541.225 339.201 538.833 337.625 537.254C326.824 525.199 322.404 509.541 316.296 495.112C323.447 499.302 326.409 507.903 336.44 506.39C346.471 504.876 347.603 494.216 346.512 485.022C345.422 475.827 348.011 464.265 345.327 455.344C350.488 459.457 355.625 460.187 357.817 466.574C360.003 472.966 362.095 478.291 363.143 484.98C364.192 491.663 367.19 498.121 366.657 505.202C366.124 512.284 364.921 518.925 363.096 525.377C361.271 531.835 361.55 538.584 358.315 544.33C355.08 550.069 346.951 545.256 342.957 542.596Z" fill="#FEE877" fill-opacity="0.65"/>
<path d="M254.603 438.536C254.603 438.536 255.153 438.613 255.176 438.536C252.792 444.805 250.81 452.477 246.008 456.872C247.904 454.269 248.867 450.697 250.718 448.129C252.574 445.568 252.42 440.523 254.603 438.536Z" fill="#4D4D4D"/>
<path d="M322.422 452.304C322.422 452.304 322.901 452.267 322.906 452.304C323.206 456.412 326.128 460.746 325.325 464.512C324.739 460.465 322.195 456.583 322.422 452.304Z" fill="#414141"/>
<path d="M207.044 450.76C207.044 450.671 206.288 450.393 206.28 450.204C206.845 448.537 206.777 445.803 208.572 444.648C208.572 444.648 209.29 444.737 209.336 444.648C208.404 446.676 207.747 448.704 207.044 450.76Z" fill="#505050"/>
<path d="M117.39 445.823C117.922 445.429 118.646 445.088 119.184 444.648C114.538 449.584 110.215 455.679 105.432 459.928C109.115 455.379 112.547 449.426 117.39 445.823Z" fill="#535353"/>
<path d="M406.448 473.68C406.448 471.596 407.518 469.279 407.976 467.568C407.976 469.652 406.906 471.969 406.448 473.68Z" fill="#636363"/>
<path d="M207.808 451.439C206.046 453.076 207.597 455.704 204.805 456.872C204.425 454.699 206.166 452.505 206.807 450.76C206.817 450.991 207.808 451.33 207.808 451.439Z" fill="#727272"/>
<path d="M278.096 462.046C278.096 461.951 278.748 461.662 278.775 461.456C282.048 469.508 280.683 479.22 284.208 487.432C279.991 480.696 279.821 470.264 278.096 462.046Z" fill="#4B4B4B"/>
<path d="M279.265 544.307C279.058 546.027 279.105 547.96 279.265 549.627C280.265 553.652 279.584 565.267 274.975 561.596C270.366 557.92 269.91 555.981 267.022 551.808C264.129 547.641 263.957 543.019 262.064 538.438C260.164 533.863 260.2 528.567 259.147 523.62C258.093 518.678 258.028 512.762 257.371 507.66C256.584 519.996 259.395 533.331 262.105 545.49C254.732 537.61 251.809 525.913 243.614 518.448C235.419 510.976 231.182 494.757 240.981 487.741C250.786 480.731 257.295 474.548 263.289 464.512C263.229 474.164 269.951 482.628 271.111 492.162C272.271 501.697 282.614 504.752 283.999 514.162C285.383 523.572 279.454 534.815 279.265 544.307ZM275.715 560.267C277.845 555.13 274.354 549.716 272.756 544.898C272.348 549.544 275.513 555.059 275.715 560.267Z" fill="#FEE877" fill-opacity="0.65"/>
<path d="M231.11 469.04C230.999 469.166 230.728 469.04 230.728 469.04C231.587 467.702 231.244 465.609 232.256 464.512C232.218 466.046 232.011 468.044 231.11 469.04Z" fill="#818181"/>
<path d="M308.169 472.152C317.137 481.678 317.017 494.757 321.378 506.76C325.745 518.758 327.839 534.075 327.365 546.765C331.24 535.299 325.967 521.874 325.565 510.951C326.315 517.917 332.674 519.576 335.295 525.742C337.917 531.908 333.85 539.554 332.722 546.126C331.588 552.692 327.221 556.692 326.357 564.266C325.493 571.841 318.229 571.758 316.153 564.487C314.072 557.223 311.216 554.185 308.961 547.768C306.705 541.351 306.076 535.155 302.722 529.503C299.375 523.844 295.656 519.158 296.574 512.544C297.491 505.937 301.757 502.009 303.97 496.028C306.633 501.329 306.478 510.515 308.175 516.914C309.867 523.313 309.963 530.792 314.168 535.424C308.001 515.028 306.573 493.826 308.169 472.152Z" fill="#FEE877" fill-opacity="0.65"/>
<path d="M231.543 469.096C231.543 469.096 232.049 469.249 232.256 469.096C229.646 474.419 226.33 480.684 221.56 484.376C224.99 479.309 228.633 474.431 231.543 469.096Z" fill="#5B5B5B"/>
<path d="M96.7331 501.184C93.3176 485.361 109.25 475.56 122.24 469.096C116.579 481.406 103.888 489.679 96.7331 501.184Z" fill="#FEE877" fill-opacity="0.65"/>
<path d="M202.125 478.197C202.005 478.348 201.696 478.197 201.696 478.197C201.962 476.099 202.717 474.225 202.983 472.152C203.575 473.349 202.996 477.115 202.125 478.197Z" fill="#606060"/>
<path d="M200.887 482.848C200.858 482.747 200.218 482.55 200.168 482.389C200.491 480.959 200.376 479.634 200.887 478.264C200.887 478.264 201.405 478.378 201.606 478.264C201.959 479.694 201.175 481.436 200.887 482.848Z" fill="#252525"/>
<path d="M201.683 483.542C201.838 485.98 200.527 487.981 201.007 490.488C199.262 488.64 200.736 484.779 201.007 482.848C201.054 483.091 201.656 483.39 201.683 483.542Z" fill="#565656"/>
<path d="M162.639 556.585C162.529 554.598 162.182 552.168 162.03 550.599C162.03 546.008 162.03 541.423 162.03 536.832C162.03 534.252 161.89 531.624 162.03 529.05C163.296 518.676 171.812 511.092 177.248 502.712C173.218 522.196 168.306 541.417 163.856 560.776C162.408 559.944 162.718 558.046 162.639 556.585Z" fill="#FEE877" fill-opacity="0.65"/>
<path d="M345.328 530.216C342.985 528.66 341.043 526.243 339.216 524.104C341.023 525.91 343.325 528.647 345.328 530.216Z" fill="#6E6E6E"/>
<path d="M163.496 536.328C162.026 533.901 160.96 531.192 163.496 528.688C162.651 531.215 163.496 533.795 163.496 536.328Z" fill="#7C7C7C"/>
<path d="M277.258 566.888C277.007 561.71 273.047 556.227 273.558 551.608C275.556 556.397 279.923 561.781 277.258 566.888Z" fill="#1E1E1E"/>
</g>
</svg>
